<svg xmlns="http://www.w3.org/2000/svg" class="icon icon-tabler icon-tabler-capture" width="250px" height="250px" viewBox="0 0 24 24" stroke-width="1.00" stroke="rgba(1, 1, 1, 1)" fill="none" stroke-linecap="round" stroke-linejoin="round"><circle cx="50%" cy="50%" r="50%" stroke="none" stroke-width="0" fill="rgba(255, 255, 255, 1)"/><g transform="translate(2.40, 2.40) scale(0.8)"><path stroke="none" d="M0 0h24v24H0z" fill="none"/><path d="M4 8v-2a2 2 0 0 1 2 -2h2"/><path d="M4 16v2a2 2 0 0 0 2 2h2"/><path d="M16 4h2a2 2 0 0 1 2 2v2"/><path d="M16 20h2a2 2 0 0 0 2 -2v-2"/><circle cx="12" cy="12" r="3"/></g>
  
  
  
  
  
  
</svg>